<?xml version="1.0" encoding="UTF-8"?>
<svg id="Layer_1" data-name="Layer 1" xmlns="http://www.w3.org/2000/svg" viewBox="0 0 128.88 129.68">
  <defs>
    <style>
      .cls-1 {
        stroke-width: 3px;
      }

      .cls-1, .cls-2 {
        stroke: #feede7;
      }

      .cls-1, .cls-2, .cls-3, .cls-4, .cls-5 {
        stroke-miterlimit: 288;
      }

      .cls-1, .cls-3 {
        fill: none;
      }

      .cls-2, .cls-4, .cls-6 {
        fill-rule: evenodd;
      }

      .cls-2, .cls-4, .cls-5 {
        stroke-width: .5px;
      }

      .cls-2, .cls-6 {
        fill: #feede7;
      }

      .cls-3 {
        stroke: #abaaaa;
        stroke-width: 5px;
      }

      .cls-4 {
        fill: #1f1a18;
        stroke: #1f1a18;
      }

      .cls-5 {
        fill: #dd157b;
        stroke: #dd157b;
      }
    </style>
  </defs>
  <path id="_174212880" data-name=" 174212880" class="cls-6" d="M9.04,61.25C21.05,40.02,37.85,22.45,60.84,9.46c2.42-1.37,4.73-1.52,7.01-.13,21.05,12.83,38.52,30.03,52.05,52.05,1.4,2.28,1.37,4.68-.13,7.01-14.35,22.37-31.95,39.03-51.79,51.79-2.34,1.5-4.71,1.49-7.01,.13-22.32-13.23-39.67-30.58-52.05-52.05-1.34-2.32-1.24-4.6,.13-7.01h0Z"/>
  <path id="_174189672" data-name=" 174189672" class="cls-1" d="M2.7,60.81C16.09,37.01,34.8,17.31,60.42,2.73c2.69-1.53,5.27-1.7,7.82-.14,23.46,14.39,42.93,33.68,58,58.36,1.56,2.56,1.53,5.24-.14,7.87-15.99,25.08-35.61,43.77-57.72,58.08-2.6,1.68-5.25,1.67-7.82,.14-24.88-14.84-44.21-34.29-58-58.36-1.49-2.6-1.38-5.16,.14-7.87h0Z"/>
  <path id="_174216552" data-name=" 174216552" class="cls-3" d="M6.52,61.07C19.08,38.78,36.64,20.32,60.67,6.68c2.53-1.43,4.94-1.6,7.33-.13,22.01,13.47,40.27,31.54,54.42,54.66,1.47,2.4,1.44,4.91-.13,7.37-15,23.49-33.41,40.99-54.15,54.39-2.44,1.58-4.92,1.57-7.33,.13-23.34-13.9-41.48-32.12-54.42-54.66-1.4-2.44-1.3-4.83,.13-7.37h0Z"/>
  <path id="_174205680" data-name=" 174205680" class="cls-4" d="M6.21,57.77v14.47h2.18s0-4.25,0-4.25h3.29l2.48,4.11,2.3-.03-2.61-4.68c3.54-3.7,2.36-8.9-1.85-9.66l-5.79,.04h0Z"/>
  <path id="_174205104" data-name=" 174205104" class="cls-2" d="M8.51,60l.02,5.77,3.2-.02c.94-.16,1.65-.9,1.91-2.01v-1.83c-.22-1.1-1.11-1.88-2.09-2.07h-3.03s-.02,.16-.02,.16Z"/>
  <path id="_174217536" data-name=" 174217536" class="cls-4" d="M19.65,57.84c-.02,3.24-.04,6.47-.05,9.71,.29,2.74,1.62,4.23,3.8,4.69,.97,0,1.94,0,2.91,0,1.8-.36,3.24-1.84,3.64-4.12l.03-6.92c-.73-.41-1.46-.41-2.19,0v6.57c-.49,3-5.57,3.03-6-.03v-9.89c-.66-.43-1.5-.4-2.14,0Z"/>
  <path id="_174219552" data-name=" 174219552" class="cls-4" d="M98.78,71.92c-.02-3.24-.04-6.47-.05-9.71,.29-2.74,1.62-4.23,3.8-4.69,.97,0,1.94,0,2.91,0,1.8,.36,3.24,1.84,3.64,4.12l.03,6.92c-.73,.41-1.46,.41-2.19,0v-6.57c-.49-3-5.57-3.03-6,.03v9.89c-.66,.43-1.5,.4-2.14,0Z"/>
  <path id="_174220176" data-name=" 174220176" class="cls-4" d="M84.74,71.92c-.02-3.24-.04-6.47-.05-9.71,.29-2.74,1.62-4.23,3.8-4.69,.97,0,1.94,0,2.91,0,1.8,.36,3.24,1.84,3.64,4.12l.03,10.2c-.73,.41-1.46,.41-2.19,0v-9.85c-.49-3-5.57-3.03-6,.03v9.89c-.66,.43-1.5,.4-2.14,0h0Z"/>
  <path id="_174220728" data-name=" 174220728" class="cls-4" d="M43.67,61.24c-.23,.47-1.13,.73-1.92,.5-.51-.86-1.18-1.57-2.08-2.06h-2.11c-.92,.13-1.51,.91-1.75,1.88,0,2.06,0,4.13,0,6.19,.06,1.08,.56,1.88,1.69,2.28,.67,0,1.33,0,2,0,1.56-.53,1.89-1.62,1.62-3.11h-1.38c-.98-.16-1.18-1.77,0-2.17h3.95v2.23c.02,2.73-1.01,4.25-3.34,5.2h-3.37c-2.17-.51-3.61-2.17-3.61-4.88v-4.45c.04-2.84,1.54-4.98,4.15-5.45h2.4c1.41,.37,3.38,2.21,3.77,3.84h0Z"/>
  <path id="_174221256" data-name=" 174221256" class="cls-4" d="M57.37,61.24c-.23,.47-1.13,.73-1.92,.5-.51-.86-1.18-1.57-2.08-2.06h-2.11c-.92,.13-1.51,.91-1.75,1.88,0,2.06,0,4.13,0,6.19,.06,1.08,.56,1.88,1.69,2.28,.67,0,1.33,0,2,0,1.56-.53,1.89-1.62,1.62-3.11h-1.38c-.98-.16-1.18-1.77,0-2.17h3.95v2.23c.02,2.73-1.01,4.25-3.34,5.2h-3.37c-2.17-.51-3.61-2.17-3.61-4.88v-4.45c.04-2.84,1.54-4.98,4.15-5.45h2.4c1.41,.37,3.38,2.21,3.77,3.84h0Z"/>
  <path id="_174215016" data-name=" 174215016" class="cls-4" d="M73.39,58.18v9.66c.27,2.37,1.9,3.89,3.68,4.27h4.7c.21-.45,.24-1.74-.01-2.25l-3.74-.06c-1.28-.17-2.14-.94-2.37-2.19,0-3.14,0-6.29-.01-9.43-.28-.8-1.94-.83-2.24,0h0Z"/>
  <path id="_174216744" data-name=" 174216744" class="cls-4" d="M59.99,58.18v3.68c.28,1.66,1.92,3.32,4.09,3.97v5.96h2.28v-5.82c1.58-.66,2.75-1.76,3.54-3.22,.75-1.86,.21-2.08-1.41-1.38-.79,.88-1.41,1.82-2.29,2.06h-1.89c-1-.17-1.74-.88-1.89-1.95v-3.25c-.35-.84-1.95-.89-2.44-.05h0Z"/>
  <path id="_174215088" data-name=" 174215088" class="cls-4" d="M112.88,57.71v13.93l.88,.37c1.49,0,2.98,0,4.47-.02,2.27-.14,3.84-1.56,4.38-4.87v-4.47c-.03-2.6-1.37-4.26-4.01-4.97h-5.71s0,.01,0,.01Z"/>
  <path id="_174207048" data-name=" 174207048" class="cls-2" d="M115.19,59.87v9.72l.46,.26c.78,0,1.56,0,2.34-.01,1.19-.1,2.02-1.09,2.3-3.39v-3.12c-.02-1.82-.72-2.97-2.11-3.47h-3s0,0,0,0Z"/>
  <circle id="_174189360" data-name=" 174189360" class="cls-5" cx="107.85" cy="70.91" r="1.21"/>
  <circle id="_174207072" data-name=" 174207072" class="cls-5" cx="89.88" cy="64.88" r="1.21"/>
  <circle id="_174203616" data-name=" 174203616" class="cls-5" cx="69.24" cy="58.83" r="1.21"/>
  <circle id="_174204984" data-name=" 174204984" class="cls-5" cx="28.8" cy="58.95" r="1.21"/>
</svg>